<mxfile host="app.diagrams.net" agent="Mozilla/5.0 (X11; Linux x86_64) AppleWebKit/537.36 (KHTML, like Gecko) Chrome/130.0.0.0 Safari/537.36" version="24.8.4">
  <diagram name="Page-1" id="94ic7hKvpS5h_X1xaMEn">
    <mxGraphModel dx="2878" dy="1110" grid="1" gridSize="10" guides="1" tooltips="1" connect="1" arrows="1" fold="1" page="1" pageScale="1" pageWidth="850" pageHeight="1100" math="0" shadow="0">
      <root>
        <mxCell id="0" />
        <mxCell id="1" parent="0" />
        <mxCell id="Ogvphi_lFWiViW7jZtyC-27" value="" style="rounded=0;whiteSpace=wrap;html=1;fillColor=none;dashed=1;" vertex="1" parent="1">
          <mxGeometry x="-440" y="260" width="370" height="340" as="geometry" />
        </mxCell>
        <mxCell id="Ogvphi_lFWiViW7jZtyC-29" value="" style="rounded=0;whiteSpace=wrap;html=1;fillColor=none;dashed=1;" vertex="1" parent="1">
          <mxGeometry x="-70" y="220" width="660" height="490" as="geometry" />
        </mxCell>
        <mxCell id="Ogvphi_lFWiViW7jZtyC-31" value="" style="ellipse;whiteSpace=wrap;html=1;fillColor=default;dashed=1;dashPattern=8 8;" vertex="1" parent="1">
          <mxGeometry x="80" y="250" width="490" height="430" as="geometry" />
        </mxCell>
        <mxCell id="Ogvphi_lFWiViW7jZtyC-1" value="Dane kontaktowe" style="swimlane;childLayout=stackLayout;horizontal=1;startSize=50;horizontalStack=0;rounded=1;fontSize=14;fontStyle=0;strokeWidth=2;resizeParent=0;resizeLast=1;shadow=0;dashed=0;align=center;arcSize=4;whiteSpace=wrap;html=1;" vertex="1" parent="1">
          <mxGeometry x="355" y="433" width="160" height="120" as="geometry" />
        </mxCell>
        <mxCell id="Ogvphi_lFWiViW7jZtyC-2" value="- Numer telefonu&lt;div&gt;- Adres email&lt;/div&gt;" style="align=left;strokeColor=none;fillColor=none;spacingLeft=4;fontSize=12;verticalAlign=top;resizable=0;rotatable=0;part=1;html=1;" vertex="1" parent="Ogvphi_lFWiViW7jZtyC-1">
          <mxGeometry y="50" width="160" height="70" as="geometry" />
        </mxCell>
        <mxCell id="Ogvphi_lFWiViW7jZtyC-47" style="edgeStyle=orthogonalEdgeStyle;rounded=0;orthogonalLoop=1;jettySize=auto;html=1;entryX=0.5;entryY=0;entryDx=0;entryDy=0;" edge="1" parent="1" source="Ogvphi_lFWiViW7jZtyC-3" target="Ogvphi_lFWiViW7jZtyC-25">
          <mxGeometry relative="1" as="geometry" />
        </mxCell>
        <mxCell id="Ogvphi_lFWiViW7jZtyC-48" style="edgeStyle=orthogonalEdgeStyle;rounded=0;orthogonalLoop=1;jettySize=auto;html=1;entryX=0.25;entryY=0;entryDx=0;entryDy=0;exitX=0.638;exitY=1.033;exitDx=0;exitDy=0;exitPerimeter=0;" edge="1" parent="1" source="Ogvphi_lFWiViW7jZtyC-6" target="Ogvphi_lFWiViW7jZtyC-24">
          <mxGeometry relative="1" as="geometry" />
        </mxCell>
        <mxCell id="Ogvphi_lFWiViW7jZtyC-3" value="Użytkownik" style="swimlane;fontStyle=0;childLayout=stackLayout;horizontal=1;startSize=26;horizontalStack=0;resizeParent=1;resizeParentMax=0;resizeLast=0;collapsible=1;marginBottom=0;align=center;fontSize=14;" vertex="1" parent="1">
          <mxGeometry x="230" y="280" width="160" height="116" as="geometry" />
        </mxCell>
        <mxCell id="Ogvphi_lFWiViW7jZtyC-4" value="Imię i nazwisko" style="text;strokeColor=none;fillColor=none;spacingLeft=4;spacingRight=4;overflow=hidden;rotatable=0;points=[[0,0.5],[1,0.5]];portConstraint=eastwest;fontSize=12;whiteSpace=wrap;html=1;" vertex="1" parent="Ogvphi_lFWiViW7jZtyC-3">
          <mxGeometry y="26" width="160" height="30" as="geometry" />
        </mxCell>
        <mxCell id="Ogvphi_lFWiViW7jZtyC-5" value="Dane kontaktowe" style="text;strokeColor=none;fillColor=none;spacingLeft=4;spacingRight=4;overflow=hidden;rotatable=0;points=[[0,0.5],[1,0.5]];portConstraint=eastwest;fontSize=12;whiteSpace=wrap;html=1;" vertex="1" parent="Ogvphi_lFWiViW7jZtyC-3">
          <mxGeometry y="56" width="160" height="30" as="geometry" />
        </mxCell>
        <mxCell id="Ogvphi_lFWiViW7jZtyC-6" value="Adres" style="text;strokeColor=none;fillColor=none;spacingLeft=4;spacingRight=4;overflow=hidden;rotatable=0;points=[[0,0.5],[1,0.5]];portConstraint=eastwest;fontSize=12;whiteSpace=wrap;html=1;" vertex="1" parent="Ogvphi_lFWiViW7jZtyC-3">
          <mxGeometry y="86" width="160" height="30" as="geometry" />
        </mxCell>
        <mxCell id="Ogvphi_lFWiViW7jZtyC-49" style="edgeStyle=orthogonalEdgeStyle;rounded=0;orthogonalLoop=1;jettySize=auto;html=1;" edge="1" parent="1" source="Ogvphi_lFWiViW7jZtyC-7" target="Ogvphi_lFWiViW7jZtyC-26">
          <mxGeometry relative="1" as="geometry" />
        </mxCell>
        <mxCell id="Ogvphi_lFWiViW7jZtyC-7" value="Przelew" style="swimlane;childLayout=stackLayout;horizontal=1;startSize=50;horizontalStack=0;rounded=1;fontSize=14;fontStyle=0;strokeWidth=2;resizeParent=0;resizeLast=1;shadow=0;dashed=0;align=center;arcSize=4;whiteSpace=wrap;html=1;" vertex="1" parent="1">
          <mxGeometry x="-380" y="376" width="160" height="140" as="geometry" />
        </mxCell>
        <mxCell id="Ogvphi_lFWiViW7jZtyC-8" value="- Numer rachunku odbiorcy&lt;div&gt;- Numer rachunku nadawcy&lt;/div&gt;&lt;div&gt;- Kwota&lt;/div&gt;&lt;div&gt;- Data nadania&lt;/div&gt;&lt;div&gt;- Data odbioru&lt;/div&gt;" style="align=left;strokeColor=none;fillColor=none;spacingLeft=4;fontSize=12;verticalAlign=top;resizable=0;rotatable=0;part=1;html=1;" vertex="1" parent="Ogvphi_lFWiViW7jZtyC-7">
          <mxGeometry y="50" width="160" height="90" as="geometry" />
        </mxCell>
        <mxCell id="Ogvphi_lFWiViW7jZtyC-41" style="edgeStyle=orthogonalEdgeStyle;rounded=0;orthogonalLoop=1;jettySize=auto;html=1;" edge="1" parent="1" source="Ogvphi_lFWiViW7jZtyC-9" target="Ogvphi_lFWiViW7jZtyC-31">
          <mxGeometry relative="1" as="geometry" />
        </mxCell>
        <mxCell id="Ogvphi_lFWiViW7jZtyC-50" style="edgeStyle=orthogonalEdgeStyle;rounded=0;orthogonalLoop=1;jettySize=auto;html=1;entryX=0.75;entryY=0;entryDx=0;entryDy=0;" edge="1" parent="1" source="Ogvphi_lFWiViW7jZtyC-9" target="Ogvphi_lFWiViW7jZtyC-26">
          <mxGeometry relative="1" as="geometry">
            <Array as="points">
              <mxPoint x="-50" y="453" />
              <mxPoint x="-45" y="453" />
            </Array>
          </mxGeometry>
        </mxCell>
        <mxCell id="Ogvphi_lFWiViW7jZtyC-9" value="Rachunek" style="swimlane;fontStyle=0;childLayout=stackLayout;horizontal=1;startSize=26;horizontalStack=0;resizeParent=1;resizeParentMax=0;resizeLast=0;collapsible=1;marginBottom=0;align=center;fontSize=14;" vertex="1" parent="1">
          <mxGeometry x="-150" y="330" width="160" height="86" as="geometry" />
        </mxCell>
        <mxCell id="Ogvphi_lFWiViW7jZtyC-10" value="Saldo" style="text;strokeColor=none;fillColor=none;spacingLeft=4;spacingRight=4;overflow=hidden;rotatable=0;points=[[0,0.5],[1,0.5]];portConstraint=eastwest;fontSize=12;whiteSpace=wrap;html=1;" vertex="1" parent="Ogvphi_lFWiViW7jZtyC-9">
          <mxGeometry y="26" width="160" height="30" as="geometry" />
        </mxCell>
        <mxCell id="Ogvphi_lFWiViW7jZtyC-11" value="Użytkownik" style="text;strokeColor=none;fillColor=none;spacingLeft=4;spacingRight=4;overflow=hidden;rotatable=0;points=[[0,0.5],[1,0.5]];portConstraint=eastwest;fontSize=12;whiteSpace=wrap;html=1;" vertex="1" parent="Ogvphi_lFWiViW7jZtyC-9">
          <mxGeometry y="56" width="160" height="30" as="geometry" />
        </mxCell>
        <mxCell id="Ogvphi_lFWiViW7jZtyC-21" value="Adres" style="swimlane;childLayout=stackLayout;horizontal=1;startSize=50;horizontalStack=0;rounded=1;fontSize=14;fontStyle=0;strokeWidth=2;resizeParent=0;resizeLast=1;shadow=0;dashed=0;align=center;arcSize=4;whiteSpace=wrap;html=1;" vertex="1" parent="1">
          <mxGeometry x="125" y="418" width="160" height="150" as="geometry" />
        </mxCell>
        <mxCell id="Ogvphi_lFWiViW7jZtyC-22" value="- Państwo&lt;div&gt;- Region&lt;/div&gt;&lt;div&gt;- Miasto&lt;/div&gt;&lt;div&gt;- Kod pocztowy&lt;/div&gt;&lt;div&gt;- Ulica&lt;/div&gt;&lt;div&gt;- Numer budynku&lt;/div&gt;" style="align=left;strokeColor=none;fillColor=none;spacingLeft=4;fontSize=12;verticalAlign=top;resizable=0;rotatable=0;part=1;html=1;" vertex="1" parent="Ogvphi_lFWiViW7jZtyC-21">
          <mxGeometry y="50" width="160" height="100" as="geometry" />
        </mxCell>
        <mxCell id="Ogvphi_lFWiViW7jZtyC-24" value="DataUrodzenia" style="rounded=1;arcSize=10;whiteSpace=wrap;html=1;align=center;" vertex="1" parent="1">
          <mxGeometry x="320" y="570" width="100" height="40" as="geometry" />
        </mxCell>
        <mxCell id="Ogvphi_lFWiViW7jZtyC-25" value="PESEL" style="rounded=1;arcSize=10;whiteSpace=wrap;html=1;align=center;" vertex="1" parent="1">
          <mxGeometry x="255" y="620" width="100" height="40" as="geometry" />
        </mxCell>
        <mxCell id="Ogvphi_lFWiViW7jZtyC-26" value="Numer rachunku" style="rounded=1;arcSize=10;whiteSpace=wrap;html=1;align=center;" vertex="1" parent="1">
          <mxGeometry x="-120" y="490" width="100" height="40" as="geometry" />
        </mxCell>
        <mxCell id="Ogvphi_lFWiViW7jZtyC-28" value="Zarządzanie rachunkami" style="text;html=1;align=center;verticalAlign=middle;whiteSpace=wrap;rounded=0;" vertex="1" parent="1">
          <mxGeometry x="-70" y="180" width="60" height="30" as="geometry" />
        </mxCell>
        <mxCell id="Ogvphi_lFWiViW7jZtyC-30" value="Zarządzanie przelewami" style="text;html=1;align=center;verticalAlign=middle;whiteSpace=wrap;rounded=0;" vertex="1" parent="1">
          <mxGeometry x="-440" y="220" width="60" height="30" as="geometry" />
        </mxCell>
        <mxCell id="Ogvphi_lFWiViW7jZtyC-43" style="edgeStyle=orthogonalEdgeStyle;rounded=0;orthogonalLoop=1;jettySize=auto;html=1;exitX=0;exitY=0.5;exitDx=0;exitDy=0;entryX=0.25;entryY=0;entryDx=0;entryDy=0;" edge="1" parent="1" source="Ogvphi_lFWiViW7jZtyC-6" target="Ogvphi_lFWiViW7jZtyC-21">
          <mxGeometry relative="1" as="geometry" />
        </mxCell>
        <mxCell id="Ogvphi_lFWiViW7jZtyC-44" style="edgeStyle=orthogonalEdgeStyle;rounded=0;orthogonalLoop=1;jettySize=auto;html=1;exitX=1;exitY=0.5;exitDx=0;exitDy=0;entryX=0.6;entryY=0.033;entryDx=0;entryDy=0;entryPerimeter=0;" edge="1" parent="1" source="Ogvphi_lFWiViW7jZtyC-5" target="Ogvphi_lFWiViW7jZtyC-1">
          <mxGeometry relative="1" as="geometry" />
        </mxCell>
      </root>
    </mxGraphModel>
  </diagram>
</mxfile>
